<svg width="17" height="16" viewBox="0 0 17 16" fill="none" xmlns="http://www.w3.org/2000/svg">
<g clip-path="url(#clip-wall-instagram)">
<path d="M11.757 16H5.24303C2.35246 16 0 13.6804 0 10.8302V5.16983C0 2.31962 2.35246 0 5.24303 0H11.757C14.6475 0 17 2.31962 17 5.16983V10.8302C17 13.6804 14.6475 16 11.757 16ZM5.24303 1.14873C2.99434 1.14873 1.165 2.95253 1.165 5.16983V10.8302C1.165 13.0475 2.99434 14.8513 5.24303 14.8513H11.757C14.0057 14.8513 15.835 13.0475 15.835 10.8302V5.16983C15.835 2.95253 14.0057 1.14873 11.757 1.14873H5.24303Z" fill="#001137"/>
<path d="M8.49952 12.6023C5.92561 12.6023 3.83203 10.538 3.83203 8.00003C3.83203 5.46205 5.92561 3.39771 8.49952 3.39771C11.0734 3.39771 13.167 5.46205 13.167 8.00003C13.167 10.538 11.0734 12.6023 8.49952 12.6023ZM8.49952 4.54644C6.56855 4.54644 4.9981 6.09496 4.9981 8.00003C4.9981 9.90509 6.56855 11.4526 8.49952 11.4526C10.4305 11.4526 12.002 9.90298 12.002 8.00003C12.002 6.09707 10.4305 4.54644 8.49952 4.54644Z" fill="#001137"/>
<path d="M14.0642 3.54009C14.0642 4.06752 13.631 4.49473 13.0961 4.49473C12.5612 4.49473 12.1279 4.06752 12.1279 3.54009C12.1279 3.01266 12.5612 2.58545 13.0961 2.58545C13.631 2.58545 14.0642 3.01266 14.0642 3.54009Z" fill="#001137"/>
</g>
<defs>
<clipPath id="clip-wall-instagram">
<rect width="17" height="16" fill="#001137"/>
</clipPath>
</defs>
</svg>
